<?xml version="1.0" encoding="UTF-8" standalone="no"?>
<!-- Created with Inkscape (http://www.inkscape.org/) -->

<svg
   width="79.475243mm"
   height="62.608337mm"
   viewBox="0 0 79.475243 62.608337"
   version="1.1"
   id="svg5"
   xml:space="preserve"
   inkscape:version="1.2.2 (1:1.2.2+202305151914+b0a8486541)"
   sodipodi:docname="MonotonicSplines_logo.svg"
   xmlns:inkscape="http://www.inkscape.org/namespaces/inkscape"
   xmlns:sodipodi="http://sodipodi.sourceforge.net/DTD/sodipodi-0.dtd"
   xmlns="http://www.w3.org/2000/svg"
   xmlns:svg="http://www.w3.org/2000/svg"
   xmlns:ns8="http://www.iki.fi/pav/software/textext/"><sodipodi:namedview
     id="namedview7"
     pagecolor="#ffffff"
     bordercolor="#eeeeee"
     borderopacity="1"
     inkscape:showpageshadow="0"
     inkscape:pageopacity="0"
     inkscape:pagecheckerboard="0"
     inkscape:deskcolor="#505050"
     inkscape:document-units="mm"
     showgrid="false"
     inkscape:zoom="1.2648958"
     inkscape:cx="258.51932"
     inkscape:cy="645.50773"
     inkscape:window-width="1366"
     inkscape:window-height="656"
     inkscape:window-x="0"
     inkscape:window-y="0"
     inkscape:window-maximized="1"
     inkscape:current-layer="layer1" /><defs
     id="defs2"><style
       type="text/css"
       id="style743">*{stroke-linecap:butt;stroke-linejoin:round;}</style><clipPath
       id="p407d39af49"><rect
         height="266.112"
         width="266.112"
         x="103.104"
         y="41.472"
         id="rect881" /></clipPath></defs><g
     inkscape:label="Layer 1"
     inkscape:groupmode="layer"
     id="layer1"
     transform="translate(-32.85246,-130.52215)"><g
       id="g11234"><g
         id="patch_3"
         transform="matrix(0.35277354,0,0,0.35294756,-0.53320079,84.601457)"
         style="stroke-width:4.08943;stroke-dasharray:none"><path
           clip-path="url(#p407d39af49)"
           d="M 141.12,269.568 H 331.2 V 79.488 H 141.12 Z"
           style="fill:none;stroke:#000000;stroke-width:5.84926;stroke-linejoin:miter;stroke-dasharray:none"
           id="path753"
           transform="matrix(0.69930709,0,0,0.6989659,42.132731,81.450212)" /></g><g
         id="line2d_7"
         transform="matrix(0.34167134,0,0,0.3440487,1.7165732,86.403133)"
         style="stroke-width:5.3754;stroke-dasharray:none"><path
           clip-path="url(#p407d39af49)"
           d="m 140.54919,270.13881 c -0.306,0.3635 1.77074,-2.95684 2.85405,-4.28947 0.57,-0.70118 1.23328,-1.32401 1.90271,-1.93098 0.60437,-0.54798 1.24685,-1.05419 1.9027,-1.53938 0.92266,-0.68257 1.88042,-1.31828 2.85405,-1.92594 1.24164,-0.77493 2.52029,-1.49009 3.80541,-2.19055 1.87937,-1.02436 3.80583,-1.95987 5.70811,-2.94104 2.5375,-1.30881 5.11275,-2.5471 7.61081,-3.9297 1.28961,-0.71376 2.56769,-1.45172 3.8054,-2.25211 0.97717,-0.63191 1.93575,-1.29567 2.85406,-2.01043 0.65947,-0.51329 1.29188,-1.06216 1.9027,-1.63247 0.33036,-0.30846 0.64672,-0.63228 0.95135,-0.96618 0.33118,-0.363 0.65323,-0.73543 0.95135,-1.12603 0.33958,-0.44492 0.67789,-0.89525 0.95135,-1.38361 0.38119,-0.68076 0.77495,-1.37859 0.95135,-2.13861 1.90932,-8.22638 0.69915,-16.876 0.95136,-25.31728 0.42705,-14.29299 -0.68869,-28.68254 0.95135,-42.88755 0.17637,-1.52759 0.3964,-3.07995 0.95135,-4.51406 0.2261,-0.58429 0.56243,-1.1298 0.95135,-1.62098 0.27213,-0.34368 0.65949,-0.5809 0.95135,-0.90799 0.34962,-0.39183 0.68895,-0.80085 0.95135,-1.25573 0.40875,-0.70859 0.70688,-1.48154 0.95135,-2.26218 0.91401,-2.9186 0.90152,-6.0858 1.90271,-8.97565 0.23473,-0.67751 0.48282,-1.38648 0.95135,-1.92925 0.25188,-0.2918 0.61252,-0.47365 0.95135,-0.65744 0.60259,-0.32686 1.25317,-0.56135 1.9027,-0.7806 0.93318,-0.315 1.89419,-0.54404 2.85406,-0.76469 1.25891,-0.28939 2.5317,-0.51717 3.8054,-0.73229 1.8959,-0.3202 3.80132,-0.58353 5.70811,-0.83071 2.84864,-0.36927 5.70507,-0.67742 8.56216,-0.9743 4.43535,-0.46087 8.87892,-0.83889 13.31892,-1.2526 8.87857,-0.82728 17.77138,-1.51061 26.63784,-2.45887 2.85879,-0.30574 5.71528,-0.63969 8.56216,-1.04147 1.59018,-0.22442 3.17786,-0.4711 4.75676,-0.76456 0.95597,-0.17768 1.90944,-0.37227 2.85405,-0.60284 0.63942,-0.15608 1.2796,-0.31589 1.9027,-0.52794 0.64794,-0.22051 1.30319,-0.44167 1.90271,-0.77187 0.34166,-0.18818 0.71173,-0.37355 0.95135,-0.68132"
           style="fill:none;stroke:#0099ff;stroke-width:5.3754;stroke-linecap:square;stroke-dasharray:none"
           id="path841"
           sodipodi:nodetypes="cssssssssssssssssssssssssssssssssssssc" /></g><path
         clip-path="url(#p407d39af49)"
         d="m 140.54919,270.13881 c -0.28223,0.33313 0.61644,-0.51216 0.95135,-0.73055 0.60564,-0.39493 1.29921,-0.64326 1.9027,-1.04146 0.67309,-0.44412 1.30599,-0.95168 1.90271,-1.4941 0.68056,-0.61862 1.30767,-1.29682 1.9027,-1.9981 0.68136,-0.80303 1.30432,-1.65562 1.9027,-2.52226 0.67593,-0.97895 1.2969,-1.99557 1.9027,-3.0194 0.66602,-1.1256 1.2825,-2.27996 1.90271,-3.43144 2.59603,-4.81976 4.86405,-9.81789 7.61081,-14.55336 0.59027,-1.01764 1.22722,-2.00933 1.9027,-2.97252 0.59874,-0.85376 1.2229,-1.69247 1.9027,-2.48321 0.59616,-0.69345 1.22441,-1.36309 1.90271,-1.97644 0.59824,-0.54095 1.23018,-1.04955 1.9027,-1.49479 0.60383,-0.39976 1.22806,-0.78537 1.9027,-1.04857 0.60833,-0.23733 1.25921,-0.35516 1.9027,-0.46616 0.94234,-0.16256 1.90027,-0.22154 2.85406,-0.29032 1.58291,-0.11415 3.17042,-0.15583 4.75675,-0.2028 3.48724,-0.10325 6.97647,-0.12268 10.46487,-0.17363 13.63567,-0.19916 27.27746,-0.0961 40.90811,-0.51624 1.90409,-0.0587 3.80875,-0.13355 5.70811,-0.27994 1.2717,-0.098 2.54455,-0.20787 3.8054,-0.40041 0.63949,-0.0977 1.27575,-0.22277 1.9027,-0.3822 0.32168,-0.0818 0.64061,-0.17741 0.95135,-0.29408 0.32493,-0.12199 0.64897,-0.25281 0.95136,-0.42317 0.33652,-0.18959 0.65802,-0.41026 0.95135,-0.66155 0.34894,-0.29893 0.60976,-0.6902 0.95135,-0.9975 0.29754,-0.26767 0.61536,-0.51502 0.95135,-0.73248 0.30216,-0.19557 0.62242,-0.36463 0.95135,-0.51075 0.61555,-0.27344 1.25584,-0.49254 1.9027,-0.68029 0.93655,-0.27183 1.90012,-0.44047 2.85406,-0.64298 1.89785,-0.40288 3.8354,-0.63087 5.70811,-1.13792 0.32378,-0.0877 0.64749,-0.18597 0.95135,-0.32806 0.33547,-0.15688 0.6862,-0.3153 0.95135,-0.57385 0.42208,-0.41157 0.69641,-0.95935 0.95135,-1.4909 0.42765,-0.89166 0.68939,-1.85648 0.95135,-2.81006 0.40343,-1.46857 0.6803,-2.97013 0.95135,-4.46879 0.38248,-2.11476 0.67049,-4.24599 0.95136,-6.37662 0.36423,-2.76293 0.66497,-5.53412 0.95135,-8.3062 0.71058,-6.87812 1.26116,-13.77183 1.9027,-20.65673 0.62709,-6.72978 1.17665,-13.46751 1.9027,-20.18733 0.28156,-2.60595 0.58056,-5.21084 0.95135,-7.8056 0.27712,-1.93931 0.55934,-3.88014 0.95135,-5.79953 0.26659,-1.30529 0.53279,-2.61706 0.95136,-3.88183 0.25655,-0.77519 0.50324,-1.57474 0.95135,-2.25733 0.25183,-0.38359 0.55233,-0.76838 0.95135,-0.99497 0.28289,-0.16065 0.64032,-0.12247 0.95135,-0.21785 0.32519,-0.0997 0.65168,-0.20812 0.95135,-0.36903"
         style="fill:none;stroke:#ff6600;stroke-width:5.3754;stroke-linecap:square;stroke-dasharray:none"
         id="path856"
         sodipodi:nodetypes="csssssssssssssssssssssssssssssssssssssssssssssc"
         transform="matrix(0.34167134,0,0,0.3440487,1.7165732,86.403133)" /><g
         transform="matrix(0.811389,0,0,0.811389,32.852257,185.86612)"
         ns8:version="1.8.2"
         ns8:texconverter="pdflatex"
         ns8:pdfconverter="inkscape"
         ns8:text="\\textbf{MonotonicSplines.jl}"
         ns8:preamble="/home/micki/.config/inkscape/extensions/textext/default_packages.tex"
         ns8:scale="2.3"
         ns8:alignment="middle center"
         ns8:stroke-to-path="0"
         ns8:inkscapeversion="1.2.2"
         ns8:jacobian_sqrt="0.811389"
         id="g5101"><defs
   id="id-e01b3919-1fee-412a-8d5a-1977f550601c" />
  <g
   id="id-02d2cb8e-69e0-46a3-a529-f1a4703bb699"
   transform="translate(-149.118,-127.812)">
    <g
   style="fill:#000000;fill-opacity:1"
   id="id-e60fdcbb-5d95-4403-aba2-d743e459db48">
      <g
   transform="translate(148.712,134.765)"
   id="g5692"><path
   style="stroke:none"
   d="M 5.4375,-1.3125 3.046875,-6.59375 c -0.109375,-0.25 -0.21875,-0.25 -0.4375,-0.25 H 0.40625 V -6.375 h 1.0625 v 5.625 c 0,0.21875 0,0.21875 -0.28125,0.25 -0.234375,0.03125 -0.265625,0.03125 -0.546875,0.03125 H 0.40625 V 0 c 0.375,-0.03125 0.9375,-0.03125 1.328125,-0.03125 0.421875,0 0.9375,0 1.34375,0.03125 v -0.46875 h -0.25 C 2.65625,-0.46875 2.484375,-0.484375 2.296875,-0.5 2.015625,-0.53125 2,-0.53125 2,-0.75 V -6.234375 H 2.015625 L 4.71875,-0.25 C 4.8125,-0.046875 4.9375,0 5.046875,0 5.25,0 5.328125,-0.15625 5.359375,-0.234375 L 8.140625,-6.375 H 8.15625 v 5.90625 H 7.078125 V 0 c 0.359375,-0.03125 1.28125,-0.03125 1.6875,-0.03125 0.421875,0 1.359375,0 1.71875,0.03125 V -0.46875 H 9.40625 V -6.375 h 1.078125 V -6.84375 H 8.28125 c -0.21875,0 -0.34375,0 -0.453125,0.25 z m 0,0"
   id="id-4cb12a75-31c1-428c-ac3c-ed04265587ac" />
      </g><g
   transform="translate(159.588,134.765)"
   id="g5695"><path
   style="stroke:none"
   d="m 5.40625,-2.171875 c 0,-1.34375 -0.921875,-2.34375 -2.546875,-2.34375 -1.640625,0 -2.546875,1.015625 -2.546875,2.34375 0,1.234375 0.890625,2.234375 2.546875,2.234375 1.671875,0 2.546875,-1.015625 2.546875,-2.234375 z M 2.859375,-0.34375 c -1.265625,0 -1.265625,-1.078125 -1.265625,-1.9375 0,-0.453125 0,-0.953125 0.171875,-1.296875 0.1875,-0.375 0.609375,-0.578125 1.09375,-0.578125 0.421875,0 0.84375,0.15625 1.0625,0.5 C 4.125,-3.3125 4.125,-2.765625 4.125,-2.28125 c 0,0.859375 0,1.9375 -1.265625,1.9375 z m 0,0"
   id="id-6fb3729b-a9af-497c-909c-abc1c3cb9a91" />
      </g><g
   transform="translate(165.317,134.765)"
   id="g5698"><path
   style="stroke:none"
   d="m 1.140625,-3.546875 v 3.078125 h -0.6875 V 0 c 0.28125,-0.015625 0.875,-0.03125 1.25,-0.03125 0.390625,0 0.984375,0.015625 1.25,0.03125 v -0.46875 h -0.6875 v -2.078125 c 0,-1.09375 0.859375,-1.578125 1.5,-1.578125 0.328125,0 0.546875,0.203125 0.546875,0.96875 v 2.6875 H 3.625 V 0 c 0.265625,-0.015625 0.875,-0.03125 1.25,-0.03125 0.390625,0 0.984375,0.015625 1.25,0.03125 V -0.46875 H 5.4375 v -2.578125 c 0,-1.046875 -0.53125,-1.4375 -1.53125,-1.4375 -0.953125,0 -1.484375,0.5625 -1.75,1.078125 V -4.484375 L 0.453125,-4.40625 v 0.46875 c 0.609375,0 0.6875,0 0.6875,0.390625 z m 0,0"
   id="id-3a9fa658-9e70-4b82-bca2-a4d340cd6361" />
      </g><g
   transform="translate(171.682,134.765)"
   id="g5701"><path
   style="stroke:none"
   d="m 5.40625,-2.171875 c 0,-1.34375 -0.921875,-2.34375 -2.546875,-2.34375 -1.640625,0 -2.546875,1.015625 -2.546875,2.34375 0,1.234375 0.890625,2.234375 2.546875,2.234375 1.671875,0 2.546875,-1.015625 2.546875,-2.234375 z M 2.859375,-0.34375 c -1.265625,0 -1.265625,-1.078125 -1.265625,-1.9375 0,-0.453125 0,-0.953125 0.171875,-1.296875 0.1875,-0.375 0.609375,-0.578125 1.09375,-0.578125 0.421875,0 0.84375,0.15625 1.0625,0.5 C 4.125,-3.3125 4.125,-2.765625 4.125,-2.28125 c 0,0.859375 0,1.9375 -1.265625,1.9375 z m 0,0"
   id="id-4984136a-ffa6-44ac-be63-73abea653743" />
      </g><g
   transform="translate(177.41,134.765)"
   id="g5704"><path
   style="stroke:none"
   d="m 1.03125,-3.953125 v 2.734375 c 0,1.0625 0.859375,1.28125 1.578125,1.28125 0.75,0 1.203125,-0.578125 1.203125,-1.296875 v -0.53125 H 3.34375 V -1.25 c 0,0.671875 -0.328125,0.90625 -0.609375,0.90625 -0.578125,0 -0.578125,-0.640625 -0.578125,-0.859375 v -2.75 H 3.625 v -0.46875 H 2.15625 v -1.90625 H 1.6875 c 0,1 -0.484375,1.984375 -1.484375,2.015625 v 0.359375 z m 0,0"
   id="id-b4c02844-d462-44cc-abe2-9150b3b35995" />
      </g><g
   transform="translate(181.866,134.765)"
   id="g5707"><path
   style="stroke:none"
   d="m 5.40625,-2.171875 c 0,-1.34375 -0.921875,-2.34375 -2.546875,-2.34375 -1.640625,0 -2.546875,1.015625 -2.546875,2.34375 0,1.234375 0.890625,2.234375 2.546875,2.234375 1.671875,0 2.546875,-1.015625 2.546875,-2.234375 z M 2.859375,-0.34375 c -1.265625,0 -1.265625,-1.078125 -1.265625,-1.9375 0,-0.453125 0,-0.953125 0.171875,-1.296875 0.1875,-0.375 0.609375,-0.578125 1.09375,-0.578125 0.421875,0 0.84375,0.15625 1.0625,0.5 C 4.125,-3.3125 4.125,-2.765625 4.125,-2.28125 c 0,0.859375 0,1.9375 -1.265625,1.9375 z m 0,0"
   id="id-2057771a-ea75-4236-ae30-b66a5498cfaf" />
      </g><g
   transform="translate(187.594,134.765)"
   id="g5710"><path
   style="stroke:none"
   d="m 1.140625,-3.546875 v 3.078125 h -0.6875 V 0 c 0.28125,-0.015625 0.875,-0.03125 1.25,-0.03125 0.390625,0 0.984375,0.015625 1.25,0.03125 v -0.46875 h -0.6875 v -2.078125 c 0,-1.09375 0.859375,-1.578125 1.5,-1.578125 0.328125,0 0.546875,0.203125 0.546875,0.96875 v 2.6875 H 3.625 V 0 c 0.265625,-0.015625 0.875,-0.03125 1.25,-0.03125 0.390625,0 0.984375,0.015625 1.25,0.03125 V -0.46875 H 5.4375 v -2.578125 c 0,-1.046875 -0.53125,-1.4375 -1.53125,-1.4375 -0.953125,0 -1.484375,0.5625 -1.75,1.078125 V -4.484375 L 0.453125,-4.40625 v 0.46875 c 0.609375,0 0.6875,0 0.6875,0.390625 z m 0,0"
   id="id-95500629-16f4-4cf8-9946-1a9ce5b4a9b8" />
      </g><g
   transform="translate(193.959,134.765)"
   id="g5713"><path
   style="stroke:none"
   d="M 2.234375,-4.484375 0.5,-4.40625 v 0.46875 c 0.59375,0 0.65625,0 0.65625,0.390625 V -0.46875 H 0.46875 V 0 C 0.78125,-0.015625 1.265625,-0.03125 1.6875,-0.03125 1.984375,-0.03125 2.5,-0.015625 2.84375,0 V -0.46875 H 2.234375 Z m 0.09375,-1.671875 c 0,-0.4375 -0.359375,-0.765625 -0.765625,-0.765625 -0.4375,0 -0.78125,0.34375 -0.78125,0.765625 0,0.4375 0.34375,0.78125 0.78125,0.78125 0.40625,0 0.765625,-0.34375 0.765625,-0.78125 z m 0,0"
   id="id-4b67f5a4-8941-4f76-8873-87b2688ed46c" />
      </g><g
   transform="translate(197.141,134.765)"
   id="g5716"><path
   style="stroke:none"
   d="m 3.59375,-4.0625 c -0.1875,0.171875 -0.203125,0.375 -0.203125,0.46875 0,0.4375 0.34375,0.625 0.609375,0.625 0.3125,0 0.640625,-0.21875 0.640625,-0.625 0,-0.859375 -1.15625,-0.921875 -1.734375,-0.921875 -1.796875,0 -2.53125,1.140625 -2.53125,2.296875 0,1.328125 0.9375,2.28125 2.46875,2.28125 1.625,0 1.921875,-1.15625 1.921875,-1.234375 C 4.765625,-1.3125 4.625,-1.3125 4.53125,-1.3125 c -0.1875,0 -0.1875,0.03125 -0.25,0.15625 -0.25,0.625 -0.734375,0.8125 -1.234375,0.8125 -1.390625,0 -1.390625,-1.453125 -1.390625,-1.921875 0,-0.5625 0,-1.84375 1.28125,-1.84375 0.359375,0 0.515625,0.015625 0.65625,0.046875 z m 0,0"
   id="id-0ab98513-8557-4f23-861f-bf53edd6a25f" />
      </g><g
   transform="translate(202.233,134.765)"
   id="g5719"><path
   style="stroke:none"
   d="M 4,-4.125 2.5625,-4.4375 C 2.15625,-4.53125 1.609375,-4.859375 1.609375,-5.46875 c 0,-0.4375 0.28125,-1.046875 1.265625,-1.046875 0.796875,0 1.8125,0.328125 2.046875,1.6875 0.03125,0.25 0.03125,0.265625 0.234375,0.265625 0.25,0 0.25,-0.046875 0.25,-0.28125 v -1.828125 c 0,-0.1875 0,-0.28125 -0.1875,-0.28125 -0.078125,0 -0.078125,0.015625 -0.1875,0.109375 l -0.453125,0.4375 C 4,-6.859375 3.34375,-6.953125 2.875,-6.953125 c -1.515625,0 -2.234375,0.96875 -2.234375,2.015625 0,0.640625 0.328125,1.09375 0.53125,1.3125 0.5,0.5 0.828125,0.5625 1.921875,0.796875 0.875,0.203125 1.046875,0.21875 1.265625,0.4375 C 4.5,-2.25 4.75,-1.984375 4.75,-1.53125 c 0,0.484375 -0.25,1.171875 -1.296875,1.171875 -0.75,0 -2.265625,-0.203125 -2.34375,-1.6875 C 1.09375,-2.21875 1.09375,-2.265625 0.875,-2.265625 c -0.234375,0 -0.234375,0.046875 -0.234375,0.28125 v 1.8125 c 0,0.1875 0,0.28125 0.171875,0.28125 0.09375,0 0.109375,-0.015625 0.1875,-0.09375 L 1.46875,-0.4375 c 0.65625,0.484375 1.578125,0.546875 1.984375,0.546875 1.65625,0 2.265625,-1.125 2.265625,-2.140625 C 5.71875,-3.125 4.921875,-3.9375 4,-4.125 Z m 0,0"
   id="id-f530e626-07ad-4e61-988a-64b61e6e24db" />
      </g><g
   transform="translate(208.598,134.765)"
   id="g5722"><path
   style="stroke:none"
   d="m 2.1875,-3.28125 c 0,-0.1875 0.015625,-0.203125 0.15625,-0.34375 0.390625,-0.40625 0.921875,-0.46875 1.140625,-0.46875 0.65625,0 1.21875,0.609375 1.21875,1.875 0,1.40625 -0.703125,1.921875 -1.34375,1.921875 -0.140625,0 -0.609375,0 -1.0625,-0.546875 C 2.1875,-0.96875 2.1875,-0.984375 2.1875,-1.171875 Z m 0,2.890625 c 0.4375,0.34375 0.875,0.453125 1.28125,0.453125 1.5,0 2.515625,-0.90625 2.515625,-2.28125 0,-1.328125 -0.90625,-2.265625 -2.34375,-2.265625 -0.75,0 -1.28125,0.3125 -1.5,0.484375 V -4.484375 L 0.375,-4.40625 v 0.46875 c 0.609375,0 0.6875,0 0.6875,0.375 V 1.46875 H 0.375 V 1.9375 C 0.640625,1.921875 1.25,1.90625 1.625,1.90625 c 0.390625,0 0.984375,0.015625 1.25,0.03125 V 1.46875 H 2.1875 Z m 0,0"
   id="id-45f33f18-d8ed-4be8-baa4-e14f075344b5" />
      </g><g
   transform="translate(214.963,134.765)"
   id="g5725"><path
   style="stroke:none"
   d="M 2.234375,-6.921875 0.46875,-6.84375 V -6.375 c 0.625,0 0.6875,0 0.6875,0.390625 V -0.46875 H 0.46875 V 0 c 0.3125,-0.015625 0.796875,-0.03125 1.21875,-0.03125 0.4375,0 0.890625,0.015625 1.234375,0.03125 v -0.46875 h -0.6875 z m 0,0"
   id="id-483ca2c6-049f-40da-8b7a-ef3b9ebc8abb" />
      </g><g
   transform="translate(218.145,134.765)"
   id="g5728"><path
   style="stroke:none"
   d="M 2.234375,-4.484375 0.5,-4.40625 v 0.46875 c 0.59375,0 0.65625,0 0.65625,0.390625 V -0.46875 H 0.46875 V 0 C 0.78125,-0.015625 1.265625,-0.03125 1.6875,-0.03125 1.984375,-0.03125 2.5,-0.015625 2.84375,0 V -0.46875 H 2.234375 Z m 0.09375,-1.671875 c 0,-0.4375 -0.359375,-0.765625 -0.765625,-0.765625 -0.4375,0 -0.78125,0.34375 -0.78125,0.765625 0,0.4375 0.34375,0.78125 0.78125,0.78125 0.40625,0 0.765625,-0.34375 0.765625,-0.78125 z m 0,0"
   id="id-23e3410a-0bd1-42d7-8a14-9899e5f4e4d0" />
      </g><g
   transform="translate(221.327,134.765)"
   id="g5731"><path
   style="stroke:none"
   d="m 1.140625,-3.546875 v 3.078125 h -0.6875 V 0 c 0.28125,-0.015625 0.875,-0.03125 1.25,-0.03125 0.390625,0 0.984375,0.015625 1.25,0.03125 v -0.46875 h -0.6875 v -2.078125 c 0,-1.09375 0.859375,-1.578125 1.5,-1.578125 0.328125,0 0.546875,0.203125 0.546875,0.96875 v 2.6875 H 3.625 V 0 c 0.265625,-0.015625 0.875,-0.03125 1.25,-0.03125 0.390625,0 0.984375,0.015625 1.25,0.03125 V -0.46875 H 5.4375 v -2.578125 c 0,-1.046875 -0.53125,-1.4375 -1.53125,-1.4375 -0.953125,0 -1.484375,0.5625 -1.75,1.078125 V -4.484375 L 0.453125,-4.40625 v 0.46875 c 0.609375,0 0.6875,0 0.6875,0.390625 z m 0,0"
   id="id-c6886d0d-eb9e-4a48-b1e6-1440bb3715bc" />
      </g><g
   transform="translate(227.692,134.765)"
   id="g5734"><path
   style="stroke:none"
   d="m 4.609375,-2.171875 c 0.21875,0 0.3125,0 0.3125,-0.265625 0,-0.3125 -0.0625,-1.046875 -0.5625,-1.546875 C 4,-4.34375 3.46875,-4.515625 2.78125,-4.515625 c -1.59375,0 -2.46875,1.03125 -2.46875,2.265625 0,1.34375 1,2.3125 2.609375,2.3125 1.578125,0 2,-1.0625 2,-1.234375 0,-0.171875 -0.1875,-0.171875 -0.234375,-0.171875 -0.171875,0 -0.1875,0.046875 -0.25,0.203125 -0.203125,0.484375 -0.78125,0.796875 -1.421875,0.796875 -1.40625,0 -1.421875,-1.328125 -1.421875,-1.828125 z M 1.59375,-2.5 C 1.609375,-2.890625 1.625,-3.3125 1.828125,-3.640625 2.09375,-4.03125 2.5,-4.15625 2.78125,-4.15625 c 1.171875,0 1.1875,1.3125 1.203125,1.65625 z m 0,0"
   id="id-7276efbb-0e15-43d6-968b-6b88747f2f29" />
      </g><g
   transform="translate(232.944,134.765)"
   id="g5737"><path
   style="stroke:none"
   d="M 2.109375,-2.9375 C 1.734375,-3 1.09375,-3.109375 1.09375,-3.578125 c 0,-0.625 0.921875,-0.625 1.109375,-0.625 0.75,0 1.125,0.296875 1.171875,0.84375 0.015625,0.15625 0.03125,0.203125 0.234375,0.203125 0.234375,0 0.234375,-0.046875 0.234375,-0.28125 v -0.796875 c 0,-0.1875 0,-0.28125 -0.171875,-0.28125 -0.046875,0 -0.0625,0 -0.453125,0.1875 -0.265625,-0.125 -0.609375,-0.1875 -1,-0.1875 -0.3125,0 -1.84375,0 -1.84375,1.3125 0,0.390625 0.203125,0.65625 0.40625,0.828125 0.390625,0.34375 0.78125,0.40625 1.546875,0.546875 0.359375,0.0625 1.09375,0.1875 1.09375,0.78125 0,0.75 -0.90625,0.75 -1.125,0.75 -1.0625,0 -1.3125,-0.734375 -1.4375,-1.15625 C 0.8125,-1.59375 0.75,-1.59375 0.625,-1.59375 c -0.25,0 -0.25,0.0625 -0.25,0.28125 v 1.09375 c 0,0.1875 0,0.28125 0.1875,0.28125 0.0625,0 0.078125,0 0.296875,-0.15625 0.015625,0 0.234375,-0.140625 0.25,-0.171875 0.46875,0.328125 0.984375,0.328125 1.1875,0.328125 0.3125,0 1.84375,0 1.84375,-1.453125 0,-0.4375 -0.203125,-0.78125 -0.546875,-1.0625 C 3.203125,-2.734375 2.875,-2.796875 2.109375,-2.9375 Z m 0,0"
   id="id-56edca9d-770c-43f6-a403-d49709027005" />
      </g><g
   transform="translate(237.463,134.765)"
   id="g5740"><path
   style="stroke:none"
   d="m 2.359375,-0.78125 c 0,-0.421875 -0.34375,-0.78125 -0.78125,-0.78125 C 1.15625,-1.5625 0.8125,-1.203125 0.8125,-0.78125 0.8125,-0.34375 1.15625,0 1.578125,0 c 0.4375,0 0.78125,-0.34375 0.78125,-0.78125 z m 0,0"
   id="id-a96f9272-7c52-4bc3-8c33-0bdd6b0add54" />
      </g><g
   transform="translate(240.645,134.765)"
   id="g5743"><path
   style="stroke:none"
   d="m 0.828125,-4.40625 v 0.46875 c 0.171875,0 0.390625,0 0.53125,0.015625 0.21875,0.046875 0.21875,0.171875 0.21875,0.390625 v 3.953125 c 0,0.5 -0.140625,1.21875 -0.734375,1.21875 -0.171875,0 -0.25,-0.03125 -0.390625,-0.0625 0.1875,-0.140625 0.234375,-0.359375 0.234375,-0.5 0,-0.34375 -0.265625,-0.625 -0.625,-0.625 -0.375,0 -0.625,0.28125 -0.625,0.640625 C -0.5625,1.65625 0.046875,2 0.859375,2 1.71875,2 2.65625,1.46875 2.65625,0.421875 v -4.90625 z m 1.828125,-1.75 c 0,-0.421875 -0.34375,-0.765625 -0.765625,-0.765625 -0.4375,0 -0.78125,0.34375 -0.78125,0.765625 0,0.4375 0.34375,0.78125 0.78125,0.78125 0.421875,0 0.765625,-0.34375 0.765625,-0.78125 z m 0,0"
   id="id-079e5dd3-7b51-4e08-861e-d51fdfc86e97" />
      </g><g
   transform="translate(244.146,134.765)"
   id="g5746"><path
   style="stroke:none"
   d="M 2.234375,-6.921875 0.46875,-6.84375 V -6.375 c 0.625,0 0.6875,0 0.6875,0.390625 V -0.46875 H 0.46875 V 0 c 0.3125,-0.015625 0.796875,-0.03125 1.21875,-0.03125 0.4375,0 0.890625,0.015625 1.234375,0.03125 v -0.46875 h -0.6875 z m 0,0"
   id="id-1981ee7f-2e80-40ec-876d-5dc68acddf7c" />
      </g></g>
  </g>
</g><circle
         style="fill:#cb3c33;fill-opacity:1;stroke:none;stroke-width:2.72884;stroke-linecap:round;stroke-linejoin:round;stroke-dasharray:none;stroke-opacity:1"
         id="path9011"
         cx="58.652668"
         cy="166.42714"
         r="2.6500001" /><circle
         style="fill:#000000;fill-opacity:1;stroke:none;stroke-width:2.72884;stroke-linecap:round;stroke-linejoin:round;stroke-dasharray:none;stroke-opacity:1"
         id="path9011-3"
         cx="49.155895"
         cy="179.99425"
         r="2.6500001" /><circle
         style="fill:#389826;fill-opacity:1;stroke:none;stroke-width:2.72884;stroke-linecap:round;stroke-linejoin:round;stroke-dasharray:none;stroke-opacity:1"
         id="path9011-5"
         cx="83.661537"
         cy="165.06972"
         r="2.6500001" /><circle
         style="fill:#9558b2;fill-opacity:1;stroke:none;stroke-width:2.72884;stroke-linecap:round;stroke-linejoin:round;stroke-dasharray:none;stroke-opacity:1"
         id="path9011-6"
         cx="90.95755"
         cy="161.42363"
         r="2.6500001" /><circle
         style="fill:#000000;fill-opacity:1;stroke:none;stroke-width:2.72884;stroke-linecap:round;stroke-linejoin:round;stroke-dasharray:none;stroke-opacity:1"
         id="path9011-2"
         cx="95.649719"
         cy="133.17215"
         r="2.6500001" /></g></g></svg>
