<?xml version="1.0" encoding="UTF-8" standalone="no"?>
<!-- Created with Inkscape (http://www.inkscape.org/) -->

<svg
   width="79.475243mm"
   height="62.608353mm"
   viewBox="0 0 79.475243 62.608353"
   version="1.1"
   id="svg5"
   xml:space="preserve"
   inkscape:version="1.2.2 (1:1.2.2+202305151914+b0a8486541)"
   sodipodi:docname="logo-dark.svg"
   xmlns:inkscape="http://www.inkscape.org/namespaces/inkscape"
   xmlns:sodipodi="http://sodipodi.sourceforge.net/DTD/sodipodi-0.dtd"
   xmlns="http://www.w3.org/2000/svg"
   xmlns:svg="http://www.w3.org/2000/svg"><sodipodi:namedview
     id="namedview7"
     pagecolor="#ffffff"
     bordercolor="#eeeeee"
     borderopacity="1"
     inkscape:showpageshadow="0"
     inkscape:pageopacity="0"
     inkscape:pagecheckerboard="0"
     inkscape:deskcolor="#505050"
     inkscape:document-units="mm"
     showgrid="false"
     inkscape:zoom="0.54083077"
     inkscape:cx="111.86494"
     inkscape:cy="298.61467"
     inkscape:window-width="1366"
     inkscape:window-height="656"
     inkscape:window-x="0"
     inkscape:window-y="0"
     inkscape:window-maximized="1"
     inkscape:current-layer="layer1" /><defs
     id="defs2"><style
       type="text/css"
       id="style743">*{stroke-linecap:butt;stroke-linejoin:round;}</style><clipPath
       id="p407d39af49"><rect
         height="266.112"
         width="266.112"
         x="103.104"
         y="41.472"
         id="rect881" /></clipPath></defs><g
     inkscape:label="Layer 1"
     inkscape:groupmode="layer"
     id="layer1"
     transform="translate(88.339365,-130.52215)"><g
       id="g10910"
       transform="matrix(0.35277354,0,0,0.35294756,-121.72503,84.601461)"
       style="stroke:#ffffff;stroke-width:4.08943;stroke-dasharray:none"><path
         clip-path="url(#p407d39af49)"
         d="M 141.12,269.568 H 331.2 V 79.488 H 141.12 Z"
         style="fill:none;stroke:#ffffff;stroke-width:5.84926;stroke-linejoin:miter;stroke-dasharray:none"
         id="path10908"
         transform="matrix(0.69930709,0,0,0.6989659,42.132731,81.450212)" /></g><g
       id="g10914"
       transform="matrix(0.34167134,0,0,0.3440487,-119.47526,86.403137)"
       style="stroke-width:5.3754;stroke-dasharray:none"><path
         clip-path="url(#p407d39af49)"
         d="m 140.54919,270.13881 c -0.306,0.3635 1.77074,-2.95684 2.85405,-4.28947 0.57,-0.70118 1.23328,-1.32401 1.90271,-1.93098 0.60437,-0.54798 1.24685,-1.05419 1.9027,-1.53938 0.92266,-0.68257 1.88042,-1.31828 2.85405,-1.92594 1.24164,-0.77493 2.52029,-1.49009 3.80541,-2.19055 1.87937,-1.02436 3.80583,-1.95987 5.70811,-2.94104 2.5375,-1.30881 5.11275,-2.5471 7.61081,-3.9297 1.28961,-0.71376 2.56769,-1.45172 3.8054,-2.25211 0.97717,-0.63191 1.93575,-1.29567 2.85406,-2.01043 0.65947,-0.51329 1.29188,-1.06216 1.9027,-1.63247 0.33036,-0.30846 0.64672,-0.63228 0.95135,-0.96618 0.33118,-0.363 0.65323,-0.73543 0.95135,-1.12603 0.33958,-0.44492 0.67789,-0.89525 0.95135,-1.38361 0.38119,-0.68076 0.77495,-1.37859 0.95135,-2.13861 1.90932,-8.22638 0.69915,-16.876 0.95136,-25.31728 0.42705,-14.29299 -0.68869,-28.68254 0.95135,-42.88755 0.17637,-1.52759 0.3964,-3.07995 0.95135,-4.51406 0.2261,-0.58429 0.56243,-1.1298 0.95135,-1.62098 0.27213,-0.34368 0.65949,-0.5809 0.95135,-0.90799 0.34962,-0.39183 0.68895,-0.80085 0.95135,-1.25573 0.40875,-0.70859 0.70688,-1.48154 0.95135,-2.26218 0.91401,-2.9186 0.90152,-6.0858 1.90271,-8.97565 0.23473,-0.67751 0.48282,-1.38648 0.95135,-1.92925 0.25188,-0.2918 0.61252,-0.47365 0.95135,-0.65744 0.60259,-0.32686 1.25317,-0.56135 1.9027,-0.7806 0.93318,-0.315 1.89419,-0.54404 2.85406,-0.76469 1.25891,-0.28939 2.5317,-0.51717 3.8054,-0.73229 1.8959,-0.3202 3.80132,-0.58353 5.70811,-0.83071 2.84864,-0.36927 5.70507,-0.67742 8.56216,-0.9743 4.43535,-0.46087 8.87892,-0.83889 13.31892,-1.2526 8.87857,-0.82728 17.77138,-1.51061 26.63784,-2.45887 2.85879,-0.30574 5.71528,-0.63969 8.56216,-1.04147 1.59018,-0.22442 3.17786,-0.4711 4.75676,-0.76456 0.95597,-0.17768 1.90944,-0.37227 2.85405,-0.60284 0.63942,-0.15608 1.2796,-0.31589 1.9027,-0.52794 0.64794,-0.22051 1.30319,-0.44167 1.90271,-0.77187 0.34166,-0.18818 0.71173,-0.37355 0.95135,-0.68132"
         style="fill:none;stroke:#0099ff;stroke-width:5.3754;stroke-linecap:square;stroke-dasharray:none"
         id="path10912"
         sodipodi:nodetypes="cssssssssssssssssssssssssssssssssssssc" /></g><path
       clip-path="url(#p407d39af49)"
       d="m 140.54919,270.13881 c -0.28223,0.33313 0.61644,-0.51216 0.95135,-0.73055 0.60564,-0.39493 1.29921,-0.64326 1.9027,-1.04146 0.67309,-0.44412 1.30599,-0.95168 1.90271,-1.4941 0.68056,-0.61862 1.30767,-1.29682 1.9027,-1.9981 0.68136,-0.80303 1.30432,-1.65562 1.9027,-2.52226 0.67593,-0.97895 1.2969,-1.99557 1.9027,-3.0194 0.66602,-1.1256 1.2825,-2.27996 1.90271,-3.43144 2.59603,-4.81976 4.86405,-9.81789 7.61081,-14.55336 0.59027,-1.01764 1.22722,-2.00933 1.9027,-2.97252 0.59874,-0.85376 1.2229,-1.69247 1.9027,-2.48321 0.59616,-0.69345 1.22441,-1.36309 1.90271,-1.97644 0.59824,-0.54095 1.23018,-1.04955 1.9027,-1.49479 0.60383,-0.39976 1.22806,-0.78537 1.9027,-1.04857 0.60833,-0.23733 1.25921,-0.35516 1.9027,-0.46616 0.94234,-0.16256 1.90027,-0.22154 2.85406,-0.29032 1.58291,-0.11415 3.17042,-0.15583 4.75675,-0.2028 3.48724,-0.10325 6.97647,-0.12268 10.46487,-0.17363 13.63567,-0.19916 27.27746,-0.0961 40.90811,-0.51624 1.90409,-0.0587 3.80875,-0.13355 5.70811,-0.27994 1.2717,-0.098 2.54455,-0.20787 3.8054,-0.40041 0.63949,-0.0977 1.27575,-0.22277 1.9027,-0.3822 0.32168,-0.0818 0.64061,-0.17741 0.95135,-0.29408 0.32493,-0.12199 0.64897,-0.25281 0.95136,-0.42317 0.33652,-0.18959 0.65802,-0.41026 0.95135,-0.66155 0.34894,-0.29893 0.60976,-0.6902 0.95135,-0.9975 0.29754,-0.26767 0.61536,-0.51502 0.95135,-0.73248 0.30216,-0.19557 0.62242,-0.36463 0.95135,-0.51075 0.61555,-0.27344 1.25584,-0.49254 1.9027,-0.68029 0.93655,-0.27183 1.90012,-0.44047 2.85406,-0.64298 1.89785,-0.40288 3.8354,-0.63087 5.70811,-1.13792 0.32378,-0.0877 0.64749,-0.18597 0.95135,-0.32806 0.33547,-0.15688 0.6862,-0.3153 0.95135,-0.57385 0.42208,-0.41157 0.69641,-0.95935 0.95135,-1.4909 0.42765,-0.89166 0.68939,-1.85648 0.95135,-2.81006 0.40343,-1.46857 0.6803,-2.97013 0.95135,-4.46879 0.38248,-2.11476 0.67049,-4.24599 0.95136,-6.37662 0.36423,-2.76293 0.66497,-5.53412 0.95135,-8.3062 0.71058,-6.87812 1.26116,-13.77183 1.9027,-20.65673 0.62709,-6.72978 1.17665,-13.46751 1.9027,-20.18733 0.28156,-2.60595 0.58056,-5.21084 0.95135,-7.8056 0.27712,-1.93931 0.55934,-3.88014 0.95135,-5.79953 0.26659,-1.30529 0.53279,-2.61706 0.95136,-3.88183 0.25655,-0.77519 0.50324,-1.57474 0.95135,-2.25733 0.25183,-0.38359 0.55233,-0.76838 0.95135,-0.99497 0.28289,-0.16065 0.64032,-0.12247 0.95135,-0.21785 0.32519,-0.0997 0.65168,-0.20812 0.95135,-0.36903"
       style="fill:none;stroke:#ff6600;stroke-width:5.3754;stroke-linecap:square;stroke-dasharray:none"
       id="path10916"
       sodipodi:nodetypes="csssssssssssssssssssssssssssssssssssssssssssssc"
       transform="matrix(0.34167134,0,0,0.3440487,-119.47526,86.403137)" /><circle
       style="fill:#cb3c33;fill-opacity:1;stroke:none;stroke-width:2.72884;stroke-linecap:round;stroke-linejoin:round;stroke-dasharray:none;stroke-opacity:1"
       id="circle11060"
       cx="-62.539162"
       cy="166.42714"
       r="2.6500001" /><circle
       style="fill:#ffffff;fill-opacity:1;stroke:none;stroke-width:2.72884;stroke-linecap:round;stroke-linejoin:round;stroke-dasharray:none;stroke-opacity:1"
       id="circle11062"
       cx="-72.035934"
       cy="179.99425"
       r="2.6500001" /><circle
       style="fill:#389826;fill-opacity:1;stroke:none;stroke-width:2.72884;stroke-linecap:round;stroke-linejoin:round;stroke-dasharray:none;stroke-opacity:1"
       id="circle11064"
       cx="-37.530293"
       cy="165.06972"
       r="2.6500001" /><circle
       style="fill:#9558b2;fill-opacity:1;stroke:none;stroke-width:2.72884;stroke-linecap:round;stroke-linejoin:round;stroke-dasharray:none;stroke-opacity:1"
       id="circle11066"
       cx="-30.234282"
       cy="161.42363"
       r="2.6500001" /><circle
       style="fill:#ffffff;fill-opacity:1;stroke:none;stroke-width:2.72884;stroke-linecap:round;stroke-linejoin:round;stroke-dasharray:none;stroke-opacity:1"
       id="circle11068"
       cx="-25.542112"
       cy="133.17215"
       r="2.6500001" /></g></svg>
